<svg width="258" height="131" xmlns="http://www.w3.org/2000/svg">

 <g>
  <title>Layer 1</title>
  <rect id="svg_1" fill="none" rx="12.5" height="141.00001" width="265.00001" y="-9.75485" x="-7.97705"/>
  <path id="svg_2" fill="#E786D7" d="m119.31052,12.27773c6.878,5.756 12.392,12.954 16.148,21.079c3.755,8.125 5.659,16.977 5.575,25.921l-58.868,-0.522c-0.8468,-0.008 -1.3011,-0.999 -0.7542,-1.645l37.8992,-44.833z"/>
  <path id="svg_3" fill="#FDFDFF" d="m107.52352,40.87773l1.2,0l0,8.4l-1.38,0l0,-6.924l-1.692,0.48l-0.336,-1.176l2.208,-0.78zm8.856,5.604l0,1.284l-0.96,0l0,1.512l-1.392,0l0,-1.512l-4.128,0l0,-1.284l2.892,-5.604l1.5,0l-2.892,5.604l2.628,0l0,-2.184l1.392,0l0,2.184l0.96,0zm3.568,-2.472c-0.368,0.368 -0.832,0.552 -1.392,0.552c-0.56,0 -1.028,-0.184 -1.404,-0.552c-0.376,-0.376 -0.564,-0.832 -0.564,-1.368c0,-0.536 0.188,-0.988 0.564,-1.356c0.376,-0.376 0.844,-0.564 1.404,-0.564c0.56,0 1.024,0.184 1.392,0.552c0.376,0.368 0.564,0.824 0.564,1.368c0,0.536 -0.188,0.992 -0.564,1.368zm-1.404,-0.504c0.256,0 0.464,-0.084 0.624,-0.252c0.16,-0.168 0.24,-0.372 0.24,-0.612c0,-0.248 -0.08,-0.456 -0.24,-0.624c-0.16,-0.168 -0.368,-0.252 -0.624,-0.252c-0.248,0 -0.452,0.084 -0.612,0.252c-0.16,0.168 -0.24,0.376 -0.24,0.624c0,0.24 0.08,0.444 0.24,0.612c0.16,0.168 0.364,0.252 0.612,0.252zm-1.248,4.536l5.532,-6.156l0.648,0.372l-5.532,6.168l-0.648,-0.384zm5.1,1.38c-0.56,0 -1.028,-0.184 -1.404,-0.552c-0.376,-0.376 -0.564,-0.832 -0.564,-1.368c0,-0.536 0.188,-0.988 0.564,-1.356c0.376,-0.376 0.844,-0.564 1.404,-0.564c0.552,0 1.016,0.188 1.392,0.564c0.376,0.368 0.564,0.82 0.564,1.356c0,0.536 -0.188,0.992 -0.564,1.368c-0.376,0.368 -0.84,0.552 -1.392,0.552zm-0.012,-1.056c0.256,0 0.464,-0.084 0.624,-0.252c0.16,-0.168 0.24,-0.372 0.24,-0.612c0,-0.248 -0.08,-0.456 -0.24,-0.624c-0.16,-0.168 -0.368,-0.252 -0.624,-0.252c-0.248,0 -0.452,0.084 -0.612,0.252c-0.16,0.168 -0.24,0.376 -0.24,0.624c0,0.24 0.08,0.444 0.24,0.612c0.16,0.168 0.364,0.252 0.612,0.252z"/>
  <rect id="svg_4" stroke="#E786D7" fill="#E786D7" rx="4.5" height="15" width="15" y="6.77773" x="160.55552"/>
  <path id="svg_5" fill="#4F4F4F" d="m189.19552,9.87773c1.152,0 2.108,0.404 2.868,1.212c0.768,0.808 1.152,1.804 1.152,2.988c0,1.176 -0.384,2.172 -1.152,2.988c-0.76,0.808 -1.716,1.212 -2.868,1.212l-3.3,0l0,-8.4l3.3,0zm0,7.08c0.792,0 1.436,-0.272 1.932,-0.816c0.504,-0.544 0.756,-1.232 0.756,-2.064c0,-0.84 -0.252,-1.528 -0.756,-2.064c-0.496,-0.544 -1.14,-0.816 -1.932,-0.816l-1.92,0l0,5.76l1.92,0zm6.214,-1.128c0.096,0.456 0.316,0.808 0.66,1.056c0.344,0.24 0.764,0.36 1.26,0.36c0.688,0 1.204,-0.248 1.548,-0.744l1.068,0.624c-0.592,0.872 -1.468,1.308 -2.628,1.308c-0.976,0 -1.764,-0.296 -2.364,-0.888c-0.6,-0.6 -0.9,-1.356 -0.9,-2.268c0,-0.896 0.296,-1.644 0.888,-2.244c0.592,-0.608 1.352,-0.912 2.28,-0.912c0.88,0 1.6,0.308 2.16,0.924c0.568,0.616 0.852,1.364 0.852,2.244c0,0.136 -0.016,0.316 -0.048,0.54l-4.776,0zm-0.012,-1.056l3.528,0c-0.088,-0.488 -0.292,-0.856 -0.612,-1.104c-0.312,-0.248 -0.68,-0.372 -1.104,-0.372c-0.48,0 -0.88,0.132 -1.2,0.396c-0.32,0.264 -0.524,0.624 -0.612,1.08zm6.906,-0.84c0,0.2 0.108,0.36 0.324,0.48c0.224,0.112 0.492,0.212 0.804,0.3c0.32,0.08 0.64,0.176 0.96,0.288c0.32,0.112 0.588,0.304 0.804,0.576c0.224,0.264 0.336,0.6 0.336,1.008c0,0.576 -0.224,1.028 -0.672,1.356c-0.44,0.328 -0.996,0.492 -1.668,0.492c-0.592,0 -1.1,-0.124 -1.524,-0.372c-0.424,-0.248 -0.732,-0.592 -0.924,-1.032l1.116,-0.648c0.208,0.576 0.652,0.864 1.332,0.864c0.68,0 1.02,-0.224 1.02,-0.672c0,-0.192 -0.112,-0.348 -0.336,-0.468c-0.216,-0.12 -0.484,-0.22 -0.804,-0.3c-0.312,-0.088 -0.628,-0.188 -0.948,-0.3c-0.32,-0.112 -0.592,-0.296 -0.816,-0.552c-0.216,-0.264 -0.324,-0.596 -0.324,-0.996c0,-0.552 0.208,-0.996 0.624,-1.332c0.424,-0.336 0.948,-0.504 1.572,-0.504c0.496,0 0.936,0.112 1.32,0.336c0.392,0.216 0.692,0.52 0.9,0.912l-1.092,0.612c-0.208,-0.456 -0.584,-0.684 -1.128,-0.684c-0.248,0 -0.456,0.056 -0.624,0.168c-0.168,0.104 -0.252,0.26 -0.252,0.468zm9.601,4.344l-1.548,0l-2.46,-2.772l0,2.772l-1.296,0l0,-8.4l1.296,0l0,5.052l2.328,-2.652l1.584,0l-2.64,2.94l2.736,3.06zm4.103,-4.752l-1.488,0l0,2.88c0,0.248 0.056,0.428 0.168,0.54c0.112,0.104 0.276,0.164 0.492,0.18c0.224,0.008 0.5,0.004 0.828,-0.012l0,1.164c-0.992,0.12 -1.704,0.036 -2.136,-0.252c-0.432,-0.296 -0.648,-0.836 -0.648,-1.62l0,-2.88l-1.104,0l0,-1.248l1.104,0l0,-1.296l1.296,-0.384l0,1.68l1.488,0l0,1.248zm3.761,4.908c-0.88,0 -1.628,-0.304 -2.244,-0.912c-0.616,-0.608 -0.924,-1.356 -0.924,-2.244c0,-0.888 0.308,-1.636 0.924,-2.244c0.616,-0.608 1.364,-0.912 2.244,-0.912c0.888,0 1.636,0.304 2.244,0.912c0.616,0.608 0.924,1.356 0.924,2.244c0,0.888 -0.308,1.636 -0.924,2.244c-0.608,0.608 -1.356,0.912 -2.244,0.912zm-1.332,-1.8c0.36,0.36 0.804,0.54 1.332,0.54c0.528,0 0.972,-0.18 1.332,-0.54c0.36,-0.36 0.54,-0.812 0.54,-1.356c0,-0.544 -0.18,-0.996 -0.54,-1.356c-0.36,-0.36 -0.804,-0.54 -1.332,-0.54c-0.528,0 -0.972,0.18 -1.332,0.54c-0.36,0.36 -0.54,0.812 -0.54,1.356c0,0.544 0.18,0.996 0.54,1.356zm9.068,-4.512c0.824,0 1.528,0.308 2.112,0.924c0.584,0.608 0.876,1.352 0.876,2.232c0,0.888 -0.292,1.636 -0.876,2.244c-0.584,0.608 -1.288,0.912 -2.112,0.912c-0.912,0 -1.612,-0.336 -2.1,-1.008l0,3.252l-1.296,0l0,-8.4l1.296,0l0,0.864c0.488,-0.68 1.188,-1.02 2.1,-1.02zm-1.56,4.536c0.36,0.36 0.812,0.54 1.356,0.54c0.544,0 0.996,-0.18 1.356,-0.54c0.36,-0.368 0.54,-0.828 0.54,-1.38c0,-0.552 -0.18,-1.008 -0.54,-1.368c-0.36,-0.368 -0.812,-0.552 -1.356,-0.552c-0.544,0 -0.996,0.184 -1.356,0.552c-0.36,0.36 -0.54,0.816 -0.54,1.368c0,0.552 0.18,1.012 0.54,1.38z"/>
  <rect id="svg_6" stroke="#7F7FD5" fill="#7F7FD5" rx="4.5" height="15" width="15" y="33.77773" x="160.55552"/>
  <path id="svg_7" fill="#4F4F4F" d="m193.93552,36.87773l0,8.4l-1.38,0l0,-5.988l-2.556,4.224l-0.168,0l-2.556,-4.236l0,6l-1.38,0l0,-8.4l1.488,0l2.532,4.2l2.544,-4.2l1.476,0zm4.423,8.556c-0.88,0 -1.628,-0.304 -2.244,-0.912c-0.616,-0.608 -0.924,-1.356 -0.924,-2.244c0,-0.888 0.308,-1.636 0.924,-2.244c0.616,-0.608 1.364,-0.912 2.244,-0.912c0.888,0 1.636,0.304 2.244,0.912c0.616,0.608 0.924,1.356 0.924,2.244c0,0.888 -0.308,1.636 -0.924,2.244c-0.608,0.608 -1.356,0.912 -2.244,0.912zm-1.332,-1.8c0.36,0.36 0.804,0.54 1.332,0.54c0.528,0 0.972,-0.18 1.332,-0.54c0.36,-0.36 0.54,-0.812 0.54,-1.356c0,-0.544 -0.18,-0.996 -0.54,-1.356c-0.36,-0.36 -0.804,-0.54 -1.332,-0.54c-0.528,0 -0.972,0.18 -1.332,0.54c-0.36,0.36 -0.54,0.812 -0.54,1.356c0,0.544 0.18,0.996 0.54,1.356zm9.068,-4.512c0.824,0 1.528,0.304 2.112,0.912c0.584,0.608 0.876,1.356 0.876,2.244c0,0.88 -0.292,1.628 -0.876,2.244c-0.584,0.608 -1.288,0.912 -2.112,0.912c-0.912,0 -1.612,-0.34 -2.1,-1.02l0,0.864l-1.296,0l0,-8.4l1.296,0l0,3.252c0.488,-0.672 1.188,-1.008 2.1,-1.008zm-1.56,4.536c0.36,0.36 0.812,0.54 1.356,0.54c0.544,0 0.996,-0.18 1.356,-0.54c0.36,-0.368 0.54,-0.828 0.54,-1.38c0,-0.552 -0.18,-1.008 -0.54,-1.368c-0.36,-0.368 -0.812,-0.552 -1.356,-0.552c-0.544,0 -0.996,0.184 -1.356,0.552c-0.36,0.36 -0.54,0.816 -0.54,1.368c0,0.552 0.18,1.012 0.54,1.38zm6.946,-5.52c-0.16,0.16 -0.352,0.24 -0.576,0.24c-0.224,0 -0.42,-0.08 -0.588,-0.24c-0.16,-0.168 -0.24,-0.364 -0.24,-0.588c0,-0.224 0.08,-0.416 0.24,-0.576c0.16,-0.168 0.356,-0.252 0.588,-0.252c0.232,0 0.428,0.084 0.588,0.252c0.16,0.16 0.24,0.352 0.24,0.576c0,0.224 -0.084,0.42 -0.252,0.588zm-1.224,7.14l0,-6l1.296,0l0,6l-1.296,0zm2.801,0l0,-8.76l1.296,0l0,8.76l-1.296,0zm3.821,-2.448c0.096,0.456 0.316,0.808 0.66,1.056c0.344,0.24 0.764,0.36 1.26,0.36c0.688,0 1.204,-0.248 1.548,-0.744l1.068,0.624c-0.592,0.872 -1.468,1.308 -2.628,1.308c-0.976,0 -1.764,-0.296 -2.364,-0.888c-0.6,-0.6 -0.9,-1.356 -0.9,-2.268c0,-0.896 0.296,-1.644 0.888,-2.244c0.592,-0.608 1.352,-0.912 2.28,-0.912c0.88,0 1.6,0.308 2.16,0.924c0.568,0.616 0.852,1.364 0.852,2.244c0,0.136 -0.016,0.316 -0.048,0.54l-4.776,0zm-0.012,-1.056l3.528,0c-0.088,-0.488 -0.292,-0.856 -0.612,-1.104c-0.312,-0.248 -0.68,-0.372 -1.104,-0.372c-0.48,0 -0.88,0.132 -1.2,0.396c-0.32,0.264 -0.524,0.624 -0.612,1.08zm13.044,-2.496l1.416,0l-2.34,6l-1.5,0l-2.34,-6l1.416,0l1.68,4.56l1.668,-4.56zm3.461,-1.14c-0.16,0.16 -0.352,0.24 -0.576,0.24c-0.224,0 -0.42,-0.08 -0.588,-0.24c-0.16,-0.168 -0.24,-0.364 -0.24,-0.588c0,-0.224 0.08,-0.416 0.24,-0.576c0.16,-0.168 0.356,-0.252 0.588,-0.252c0.232,0 0.428,0.084 0.588,0.252c0.16,0.16 0.24,0.352 0.24,0.576c0,0.224 -0.084,0.42 -0.252,0.588zm-1.224,7.14l0,-6l1.296,0l0,6l-1.296,0zm3.821,-2.448c0.096,0.456 0.316,0.808 0.66,1.056c0.344,0.24 0.764,0.36 1.26,0.36c0.688,0 1.204,-0.248 1.548,-0.744l1.068,0.624c-0.592,0.872 -1.468,1.308 -2.628,1.308c-0.976,0 -1.764,-0.296 -2.364,-0.888c-0.6,-0.6 -0.9,-1.356 -0.9,-2.268c0,-0.896 0.296,-1.644 0.888,-2.244c0.592,-0.608 1.352,-0.912 2.28,-0.912c0.88,0 1.6,0.308 2.16,0.924c0.568,0.616 0.852,1.364 0.852,2.244c0,0.136 -0.016,0.316 -0.048,0.54l-4.776,0zm-0.012,-1.056l3.528,0c-0.088,-0.488 -0.292,-0.856 -0.612,-1.104c-0.312,-0.248 -0.68,-0.372 -1.104,-0.372c-0.48,0 -0.88,0.132 -1.2,0.396c-0.32,0.264 -0.524,0.624 -0.612,1.08zm12.654,-2.496l1.368,0l-1.884,6l-1.272,0l-1.248,-4.044l-1.26,4.044l-1.272,0l-1.884,-6l1.368,0l1.164,4.14l1.26,-4.14l1.236,0l1.248,4.14l1.176,-4.14zm3.123,1.656c0,0.2 0.108,0.36 0.324,0.48c0.224,0.112 0.492,0.212 0.804,0.3c0.32,0.08 0.64,0.176 0.96,0.288c0.32,0.112 0.588,0.304 0.804,0.576c0.224,0.264 0.336,0.6 0.336,1.008c0,0.576 -0.224,1.028 -0.672,1.356c-0.44,0.328 -0.996,0.492 -1.668,0.492c-0.592,0 -1.1,-0.124 -1.524,-0.372c-0.424,-0.248 -0.732,-0.592 -0.924,-1.032l1.116,-0.648c0.208,0.576 0.652,0.864 1.332,0.864c0.68,0 1.02,-0.224 1.02,-0.672c0,-0.192 -0.112,-0.348 -0.336,-0.468c-0.216,-0.12 -0.484,-0.22 -0.804,-0.3c-0.312,-0.088 -0.628,-0.188 -0.948,-0.3c-0.32,-0.112 -0.592,-0.296 -0.816,-0.552c-0.216,-0.264 -0.324,-0.596 -0.324,-0.996c0,-0.552 0.208,-0.996 0.624,-1.332c0.424,-0.336 0.948,-0.504 1.572,-0.504c0.496,0 0.936,0.112 1.32,0.336c0.392,0.216 0.692,0.52 0.9,0.912l-1.092,0.612c-0.208,-0.456 -0.584,-0.684 -1.128,-0.684c-0.248,0 -0.456,0.056 -0.624,0.168c-0.168,0.104 -0.252,0.26 -0.252,0.468z"/>
  <path id="svg_8" fill="#7F7FD5" d="m126.05552,65.77773c0,13.752 -4.685,27.094 -13.284,37.827c-8.599,10.733 -20.597,18.216 -34.0183,21.216c-13.4212,3 -27.464,1.338 -39.814,-4.712c-12.35,-6.051 -22.2703,-16.128 -28.1257,-28.571c-5.8555,-12.444 -7.2968,-26.511 -4.0864,-39.883c3.2104,-13.373 10.881,-25.252 21.7475,-33.681c10.8665,-8.4293 24.2805,-12.9045 38.0312,-12.6885c13.7507,0.216 27.0177,5.1103 37.6137,13.8765l-38.564,46.616l60.5,0z"/>
  <path id="svg_9" fill="#FDFDFF" d="m31.63932,74.90973c0.824,0.456 1.236,1.136 1.236,2.04c0,0.768 -0.268,1.376 -0.804,1.824c-0.536,0.44 -1.248,0.66 -2.136,0.66c-0.888,0 -1.604,-0.22 -2.148,-0.66c-0.536,-0.448 -0.804,-1.056 -0.804,-1.824c0,-0.432 0.108,-0.824 0.324,-1.176c0.216,-0.36 0.52,-0.648 0.912,-0.864c-0.632,-0.416 -0.948,-1.008 -0.948,-1.776c0,-0.768 0.256,-1.36 0.768,-1.776c0.512,-0.424 1.144,-0.636 1.896,-0.636c0.744,0 1.372,0.212 1.884,0.636c0.52,0.416 0.78,1.008 0.78,1.776c0,0.768 -0.32,1.36 -0.96,1.776zm-1.704,-2.88c-0.376,0 -0.684,0.1 -0.924,0.3c-0.24,0.2 -0.36,0.488 -0.36,0.864c0,0.36 0.12,0.644 0.36,0.852c0.248,0.208 0.556,0.312 0.924,0.312c0.36,0 0.664,-0.104 0.912,-0.312c0.248,-0.208 0.372,-0.492 0.372,-0.852c0,-0.376 -0.124,-0.664 -0.372,-0.864c-0.24,-0.2 -0.544,-0.3 -0.912,-0.3zm0,6.096c0.464,0 0.84,-0.112 1.128,-0.336c0.288,-0.232 0.432,-0.556 0.432,-0.972c0,-0.416 -0.144,-0.736 -0.432,-0.96c-0.288,-0.232 -0.664,-0.348 -1.128,-0.348c-0.472,0 -0.852,0.116 -1.14,0.348c-0.288,0.224 -0.432,0.544 -0.432,0.96c0,0.416 0.144,0.74 0.432,0.972c0.288,0.224 0.668,0.336 1.14,0.336zm6.7478,-4.428c0.872,0 1.584,0.268 2.136,0.804c0.552,0.528 0.828,1.216 0.828,2.064c0,0.848 -0.276,1.54 -0.828,2.076c-0.552,0.528 -1.264,0.792 -2.136,0.792c-0.88,0 -1.596,-0.264 -2.148,-0.792c-0.552,-0.536 -0.828,-1.228 -0.828,-2.076c0,-0.64 0.168,-1.204 0.504,-1.692l2.664,-3.996l1.572,0l-1.92,2.82l0.156,0zm0,4.428c0.464,0 0.844,-0.14 1.14,-0.42c0.296,-0.288 0.444,-0.668 0.444,-1.14c0,-0.472 -0.148,-0.848 -0.444,-1.128c-0.296,-0.288 -0.676,-0.432 -1.14,-0.432c-0.472,0 -0.856,0.144 -1.152,0.432c-0.296,0.28 -0.444,0.656 -0.444,1.128c0,0.472 0.148,0.852 0.444,1.14c0.296,0.28 0.68,0.42 1.152,0.42zm6.8597,-4.116c-0.368,0.368 -0.832,0.552 -1.392,0.552c-0.56,0 -1.028,-0.184 -1.404,-0.552c-0.376,-0.376 -0.564,-0.832 -0.564,-1.368c0,-0.536 0.188,-0.988 0.564,-1.356c0.376,-0.376 0.844,-0.564 1.404,-0.564c0.56,0 1.024,0.184 1.392,0.552c0.376,0.368 0.564,0.824 0.564,1.368c0,0.536 -0.188,0.992 -0.564,1.368zm-1.404,-0.504c0.256,0 0.464,-0.084 0.624,-0.252c0.16,-0.168 0.24,-0.372 0.24,-0.612c0,-0.248 -0.08,-0.456 -0.24,-0.624c-0.16,-0.168 -0.368,-0.252 -0.624,-0.252c-0.248,0 -0.452,0.084 -0.612,0.252c-0.16,0.168 -0.24,0.376 -0.24,0.624c0,0.24 0.08,0.444 0.24,0.612c0.16,0.168 0.364,0.252 0.612,0.252zm-1.248,4.536l5.532,-6.156l0.648,0.372l-5.532,6.168l-0.648,-0.384zm5.1,1.38c-0.56,0 -1.028,-0.184 -1.404,-0.552c-0.376,-0.376 -0.564,-0.832 -0.564,-1.368c0,-0.536 0.188,-0.988 0.564,-1.356c0.376,-0.376 0.844,-0.564 1.404,-0.564c0.552,0 1.016,0.188 1.392,0.564c0.376,0.368 0.564,0.82 0.564,1.356c0,0.536 -0.188,0.992 -0.564,1.368c-0.376,0.368 -0.84,0.552 -1.392,0.552zm-0.012,-1.056c0.256,0 0.464,-0.084 0.624,-0.252c0.16,-0.168 0.24,-0.372 0.24,-0.612c0,-0.248 -0.08,-0.456 -0.24,-0.624c-0.16,-0.168 -0.368,-0.252 -0.624,-0.252c-0.248,0 -0.452,0.084 -0.612,0.252c-0.16,0.168 -0.24,0.376 -0.24,0.624c0,0.24 0.08,0.444 0.24,0.612c0.16,0.168 0.364,0.252 0.612,0.252z"/>
  <path id="svg_10" d="m-13.7778,-18.66669" opacity="NaN" fill="none"/>
 </g>
</svg>