<svg width="200" height="150" viewBox="0 0 288 242" fill="none" xmlns="http://www.w3.org/2000/svg">
<rect x="0.5" y="0.5" width="287" height="241" rx="12.5" fill="none" stroke="none"/>
<path d="M137.255 97C144.133 102.756 149.647 109.954 153.403 118.079C157.158 126.204 159.062 135.056 158.978 144L100.11 143.478C99.2632 143.47 98.8089 142.479 99.3558 141.833L137.255 97Z" fill="#E786D7"/>
<path d="M125.468 125.6H126.668V134H125.288V127.076L123.596 127.556L123.26 126.38L125.468 125.6ZM134.324 131.204V132.488H133.364V134H131.972V132.488H127.844V131.204L130.736 125.6H132.236L129.344 131.204H131.972V129.02H133.364V131.204H134.324ZM137.892 128.732C137.524 129.1 137.06 129.284 136.5 129.284C135.94 129.284 135.472 129.1 135.096 128.732C134.72 128.356 134.532 127.9 134.532 127.364C134.532 126.828 134.72 126.376 135.096 126.008C135.472 125.632 135.94 125.444 136.5 125.444C137.06 125.444 137.524 125.628 137.892 125.996C138.268 126.364 138.456 126.82 138.456 127.364C138.456 127.9 138.268 128.356 137.892 128.732ZM136.488 128.228C136.744 128.228 136.952 128.144 137.112 127.976C137.272 127.808 137.352 127.604 137.352 127.364C137.352 127.116 137.272 126.908 137.112 126.74C136.952 126.572 136.744 126.488 136.488 126.488C136.24 126.488 136.036 126.572 135.876 126.74C135.716 126.908 135.636 127.116 135.636 127.364C135.636 127.604 135.716 127.808 135.876 127.976C136.036 128.144 136.24 128.228 136.488 128.228ZM135.24 132.764L140.772 126.608L141.42 126.98L135.888 133.148L135.24 132.764ZM140.34 134.144C139.78 134.144 139.312 133.96 138.936 133.592C138.56 133.216 138.372 132.76 138.372 132.224C138.372 131.688 138.56 131.236 138.936 130.868C139.312 130.492 139.78 130.304 140.34 130.304C140.892 130.304 141.356 130.492 141.732 130.868C142.108 131.236 142.296 131.688 142.296 132.224C142.296 132.76 142.108 133.216 141.732 133.592C141.356 133.96 140.892 134.144 140.34 134.144ZM140.328 133.088C140.584 133.088 140.792 133.004 140.952 132.836C141.112 132.668 141.192 132.464 141.192 132.224C141.192 131.976 141.112 131.768 140.952 131.6C140.792 131.432 140.584 131.348 140.328 131.348C140.08 131.348 139.876 131.432 139.716 131.6C139.556 131.768 139.476 131.976 139.476 132.224C139.476 132.464 139.556 132.668 139.716 132.836C139.876 133.004 140.08 133.088 140.328 133.088Z" fill="#FDFDFF"/>
<rect x="178.5" y="91.5" width="15" height="15" rx="4.5" fill="#E786D7" stroke="#E786D7"/>
<path d="M207.14 94.6C208.292 94.6 209.248 95.004 210.008 95.812C210.776 96.62 211.16 97.616 211.16 98.8C211.16 99.976 210.776 100.972 210.008 101.788C209.248 102.596 208.292 103 207.14 103H203.84V94.6H207.14ZM207.14 101.68C207.932 101.68 208.576 101.408 209.072 100.864C209.576 100.32 209.828 99.632 209.828 98.8C209.828 97.96 209.576 97.272 209.072 96.736C208.576 96.192 207.932 95.92 207.14 95.92H205.22V101.68H207.14ZM213.354 100.552C213.45 101.008 213.67 101.36 214.014 101.608C214.358 101.848 214.778 101.968 215.274 101.968C215.962 101.968 216.478 101.72 216.822 101.224L217.89 101.848C217.298 102.72 216.422 103.156 215.262 103.156C214.286 103.156 213.498 102.86 212.898 102.268C212.298 101.668 211.998 100.912 211.998 100C211.998 99.104 212.294 98.356 212.886 97.756C213.478 97.148 214.238 96.844 215.166 96.844C216.046 96.844 216.766 97.152 217.326 97.768C217.894 98.384 218.178 99.132 218.178 100.012C218.178 100.148 218.162 100.328 218.13 100.552H213.354ZM213.342 99.496H216.87C216.782 99.008 216.578 98.64 216.258 98.392C215.946 98.144 215.578 98.02 215.154 98.02C214.674 98.02 214.274 98.152 213.954 98.416C213.634 98.68 213.43 99.04 213.342 99.496ZM220.248 98.656C220.248 98.856 220.356 99.016 220.572 99.136C220.796 99.248 221.064 99.348 221.376 99.436C221.696 99.516 222.016 99.612 222.336 99.724C222.656 99.836 222.924 100.028 223.14 100.3C223.364 100.564 223.476 100.9 223.476 101.308C223.476 101.884 223.252 102.336 222.804 102.664C222.364 102.992 221.808 103.156 221.136 103.156C220.544 103.156 220.036 103.032 219.612 102.784C219.188 102.536 218.88 102.192 218.688 101.752L219.804 101.104C220.012 101.68 220.456 101.968 221.136 101.968C221.816 101.968 222.156 101.744 222.156 101.296C222.156 101.104 222.044 100.948 221.82 100.828C221.604 100.708 221.336 100.608 221.016 100.528C220.704 100.44 220.388 100.34 220.068 100.228C219.748 100.116 219.476 99.932 219.252 99.676C219.036 99.412 218.928 99.08 218.928 98.68C218.928 98.128 219.136 97.684 219.552 97.348C219.976 97.012 220.5 96.844 221.124 96.844C221.62 96.844 222.06 96.956 222.444 97.18C222.836 97.396 223.136 97.7 223.344 98.092L222.252 98.704C222.044 98.248 221.668 98.02 221.124 98.02C220.876 98.02 220.668 98.076 220.5 98.188C220.332 98.292 220.248 98.448 220.248 98.656ZM229.849 103H228.301L225.841 100.228V103H224.545V94.6H225.841V99.652L228.169 97H229.753L227.113 99.94L229.849 103ZM233.952 98.248H232.464V101.128C232.464 101.376 232.52 101.556 232.632 101.668C232.744 101.772 232.908 101.832 233.124 101.848C233.348 101.856 233.624 101.852 233.952 101.836V103C232.96 103.12 232.248 103.036 231.816 102.748C231.384 102.452 231.168 101.912 231.168 101.128V98.248H230.064V97H231.168V95.704L232.464 95.32V97H233.952V98.248ZM237.713 103.156C236.833 103.156 236.085 102.852 235.469 102.244C234.853 101.636 234.545 100.888 234.545 100C234.545 99.112 234.853 98.364 235.469 97.756C236.085 97.148 236.833 96.844 237.713 96.844C238.601 96.844 239.349 97.148 239.957 97.756C240.573 98.364 240.881 99.112 240.881 100C240.881 100.888 240.573 101.636 239.957 102.244C239.349 102.852 238.601 103.156 237.713 103.156ZM236.381 101.356C236.741 101.716 237.185 101.896 237.713 101.896C238.241 101.896 238.685 101.716 239.045 101.356C239.405 100.996 239.585 100.544 239.585 100C239.585 99.456 239.405 99.004 239.045 98.644C238.685 98.284 238.241 98.104 237.713 98.104C237.185 98.104 236.741 98.284 236.381 98.644C236.021 99.004 235.841 99.456 235.841 100C235.841 100.544 236.021 100.996 236.381 101.356ZM245.449 96.844C246.273 96.844 246.977 97.152 247.561 97.768C248.145 98.376 248.437 99.12 248.437 100C248.437 100.888 248.145 101.636 247.561 102.244C246.977 102.852 246.273 103.156 245.449 103.156C244.537 103.156 243.837 102.82 243.349 102.148V105.4H242.053V97H243.349V97.864C243.837 97.184 244.537 96.844 245.449 96.844ZM243.889 101.38C244.249 101.74 244.701 101.92 245.245 101.92C245.789 101.92 246.241 101.74 246.601 101.38C246.961 101.012 247.141 100.552 247.141 100C247.141 99.448 246.961 98.992 246.601 98.632C246.241 98.264 245.789 98.08 245.245 98.08C244.701 98.08 244.249 98.264 243.889 98.632C243.529 98.992 243.349 99.448 243.349 100C243.349 100.552 243.529 101.012 243.889 101.38Z" fill="#4F4F4F"/>
<rect x="178.5" y="118.5" width="15" height="15" rx="4.5" fill="#7F7FD5" stroke="#7F7FD5"/>
<path d="M211.88 121.6V130H210.5V124.012L207.944 128.236H207.776L205.22 124V130H203.84V121.6H205.328L207.86 125.8L210.404 121.6H211.88ZM216.303 130.156C215.423 130.156 214.675 129.852 214.059 129.244C213.443 128.636 213.135 127.888 213.135 127C213.135 126.112 213.443 125.364 214.059 124.756C214.675 124.148 215.423 123.844 216.303 123.844C217.191 123.844 217.939 124.148 218.547 124.756C219.163 125.364 219.471 126.112 219.471 127C219.471 127.888 219.163 128.636 218.547 129.244C217.939 129.852 217.191 130.156 216.303 130.156ZM214.971 128.356C215.331 128.716 215.775 128.896 216.303 128.896C216.831 128.896 217.275 128.716 217.635 128.356C217.995 127.996 218.175 127.544 218.175 127C218.175 126.456 217.995 126.004 217.635 125.644C217.275 125.284 216.831 125.104 216.303 125.104C215.775 125.104 215.331 125.284 214.971 125.644C214.611 126.004 214.431 126.456 214.431 127C214.431 127.544 214.611 127.996 214.971 128.356ZM224.039 123.844C224.863 123.844 225.567 124.148 226.151 124.756C226.735 125.364 227.027 126.112 227.027 127C227.027 127.88 226.735 128.628 226.151 129.244C225.567 129.852 224.863 130.156 224.039 130.156C223.127 130.156 222.427 129.816 221.939 129.136V130H220.643V121.6H221.939V124.852C222.427 124.18 223.127 123.844 224.039 123.844ZM222.479 128.38C222.839 128.74 223.291 128.92 223.835 128.92C224.379 128.92 224.831 128.74 225.191 128.38C225.551 128.012 225.731 127.552 225.731 127C225.731 126.448 225.551 125.992 225.191 125.632C224.831 125.264 224.379 125.08 223.835 125.08C223.291 125.08 222.839 125.264 222.479 125.632C222.119 125.992 221.939 126.448 221.939 127C221.939 127.552 222.119 128.012 222.479 128.38ZM229.425 122.86C229.265 123.02 229.073 123.1 228.849 123.1C228.625 123.1 228.429 123.02 228.261 122.86C228.101 122.692 228.021 122.496 228.021 122.272C228.021 122.048 228.101 121.856 228.261 121.696C228.421 121.528 228.617 121.444 228.849 121.444C229.081 121.444 229.277 121.528 229.437 121.696C229.597 121.856 229.677 122.048 229.677 122.272C229.677 122.496 229.593 122.692 229.425 122.86ZM228.201 130V124H229.497V130H228.201ZM231.002 130V121.24H232.298V130H231.002ZM234.823 127.552C234.919 128.008 235.139 128.36 235.483 128.608C235.827 128.848 236.247 128.968 236.743 128.968C237.431 128.968 237.947 128.72 238.291 128.224L239.359 128.848C238.767 129.72 237.891 130.156 236.731 130.156C235.755 130.156 234.967 129.86 234.367 129.268C233.767 128.668 233.467 127.912 233.467 127C233.467 126.104 233.763 125.356 234.355 124.756C234.947 124.148 235.707 123.844 236.635 123.844C237.515 123.844 238.235 124.152 238.795 124.768C239.363 125.384 239.647 126.132 239.647 127.012C239.647 127.148 239.631 127.328 239.599 127.552H234.823ZM234.811 126.496H238.339C238.251 126.008 238.047 125.64 237.727 125.392C237.415 125.144 237.047 125.02 236.623 125.02C236.143 125.02 235.743 125.152 235.423 125.416C235.103 125.68 234.899 126.04 234.811 126.496ZM247.855 124H249.271L246.931 130H245.431L243.091 124H244.507L246.187 128.56L247.855 124ZM251.316 122.86C251.156 123.02 250.964 123.1 250.74 123.1C250.516 123.1 250.32 123.02 250.152 122.86C249.992 122.692 249.912 122.496 249.912 122.272C249.912 122.048 249.992 121.856 250.152 121.696C250.312 121.528 250.508 121.444 250.74 121.444C250.972 121.444 251.168 121.528 251.328 121.696C251.488 121.856 251.568 122.048 251.568 122.272C251.568 122.496 251.484 122.692 251.316 122.86ZM250.092 130V124H251.388V130H250.092ZM253.913 127.552C254.009 128.008 254.229 128.36 254.573 128.608C254.917 128.848 255.337 128.968 255.833 128.968C256.521 128.968 257.037 128.72 257.381 128.224L258.449 128.848C257.857 129.72 256.981 130.156 255.821 130.156C254.845 130.156 254.057 129.86 253.457 129.268C252.857 128.668 252.557 127.912 252.557 127C252.557 126.104 252.853 125.356 253.445 124.756C254.037 124.148 254.797 123.844 255.725 123.844C256.605 123.844 257.325 124.152 257.885 124.768C258.453 125.384 258.737 126.132 258.737 127.012C258.737 127.148 258.721 127.328 258.689 127.552H253.913ZM253.901 126.496H257.429C257.341 126.008 257.137 125.64 256.817 125.392C256.505 125.144 256.137 125.02 255.713 125.02C255.233 125.02 254.833 125.152 254.513 125.416C254.193 125.68 253.989 126.04 253.901 126.496ZM266.555 124H267.923L266.039 130H264.767L263.519 125.956L262.259 130H260.987L259.103 124H260.471L261.635 128.14L262.895 124H264.131L265.379 128.14L266.555 124ZM269.678 125.656C269.678 125.856 269.786 126.016 270.002 126.136C270.226 126.248 270.494 126.348 270.806 126.436C271.126 126.516 271.446 126.612 271.766 126.724C272.086 126.836 272.354 127.028 272.57 127.3C272.794 127.564 272.906 127.9 272.906 128.308C272.906 128.884 272.682 129.336 272.234 129.664C271.794 129.992 271.238 130.156 270.566 130.156C269.974 130.156 269.466 130.032 269.042 129.784C268.618 129.536 268.31 129.192 268.118 128.752L269.234 128.104C269.442 128.68 269.886 128.968 270.566 128.968C271.246 128.968 271.586 128.744 271.586 128.296C271.586 128.104 271.474 127.948 271.25 127.828C271.034 127.708 270.766 127.608 270.446 127.528C270.134 127.44 269.818 127.34 269.498 127.228C269.178 127.116 268.906 126.932 268.682 126.676C268.466 126.412 268.358 126.08 268.358 125.68C268.358 125.128 268.566 124.684 268.982 124.348C269.406 124.012 269.93 123.844 270.554 123.844C271.05 123.844 271.49 123.956 271.874 124.18C272.266 124.396 272.566 124.7 272.774 125.092L271.682 125.704C271.474 125.248 271.098 125.02 270.554 125.02C270.306 125.02 270.098 125.076 269.93 125.188C269.762 125.292 269.678 125.448 269.678 125.656Z" fill="#4F4F4F"/>
<path d="M144 150.5C144 164.252 139.315 177.594 130.716 188.327C122.117 199.06 110.119 206.543 96.6977 209.543C83.2765 212.543 69.2337 210.881 56.8837 204.831C44.5337 198.78 34.6134 188.703 28.758 176.26C22.9025 163.816 21.4612 149.749 24.6716 136.377C27.882 123.004 35.5526 111.125 46.4191 102.696C57.2856 94.2667 70.6996 89.7915 84.4503 90.0075C98.201 90.2235 111.468 95.1178 122.064 103.884L83.5 150.5H144Z" fill="#7F7FD5"/>
<path d="M49.5838 159.632C50.4078 160.088 50.8198 160.768 50.8198 161.672C50.8198 162.44 50.5518 163.048 50.0158 163.496C49.4798 163.936 48.7678 164.156 47.8798 164.156C46.9918 164.156 46.2758 163.936 45.7318 163.496C45.1958 163.048 44.9278 162.44 44.9278 161.672C44.9278 161.24 45.0358 160.848 45.2518 160.496C45.4678 160.136 45.7718 159.848 46.1638 159.632C45.5318 159.216 45.2158 158.624 45.2158 157.856C45.2158 157.088 45.4718 156.496 45.9838 156.08C46.4958 155.656 47.1278 155.444 47.8798 155.444C48.6238 155.444 49.2518 155.656 49.7638 156.08C50.2838 156.496 50.5438 157.088 50.5438 157.856C50.5438 158.624 50.2238 159.216 49.5838 159.632ZM47.8798 156.752C47.5038 156.752 47.1958 156.852 46.9558 157.052C46.7158 157.252 46.5958 157.54 46.5958 157.916C46.5958 158.276 46.7158 158.56 46.9558 158.768C47.2038 158.976 47.5118 159.08 47.8798 159.08C48.2398 159.08 48.5438 158.976 48.7918 158.768C49.0398 158.56 49.1638 158.276 49.1638 157.916C49.1638 157.54 49.0398 157.252 48.7918 157.052C48.5518 156.852 48.2478 156.752 47.8798 156.752ZM47.8798 162.848C48.3438 162.848 48.7198 162.736 49.0078 162.512C49.2958 162.28 49.4398 161.956 49.4398 161.54C49.4398 161.124 49.2958 160.804 49.0078 160.58C48.7198 160.348 48.3438 160.232 47.8798 160.232C47.4078 160.232 47.0278 160.348 46.7398 160.58C46.4518 160.804 46.3078 161.124 46.3078 161.54C46.3078 161.956 46.4518 162.28 46.7398 162.512C47.0278 162.736 47.4078 162.848 47.8798 162.848ZM54.6276 158.42C55.4996 158.42 56.2116 158.688 56.7636 159.224C57.3156 159.752 57.5916 160.44 57.5916 161.288C57.5916 162.136 57.3156 162.828 56.7636 163.364C56.2116 163.892 55.4996 164.156 54.6276 164.156C53.7476 164.156 53.0316 163.892 52.4796 163.364C51.9276 162.828 51.6516 162.136 51.6516 161.288C51.6516 160.648 51.8196 160.084 52.1556 159.596L54.8196 155.6H56.3916L54.4716 158.42H54.6276ZM54.6276 162.848C55.0916 162.848 55.4716 162.708 55.7676 162.428C56.0636 162.14 56.2116 161.76 56.2116 161.288C56.2116 160.816 56.0636 160.44 55.7676 160.16C55.4716 159.872 55.0916 159.728 54.6276 159.728C54.1556 159.728 53.7716 159.872 53.4756 160.16C53.1796 160.44 53.0316 160.816 53.0316 161.288C53.0316 161.76 53.1796 162.14 53.4756 162.428C53.7716 162.708 54.1556 162.848 54.6276 162.848ZM61.4873 158.732C61.1193 159.1 60.6553 159.284 60.0953 159.284C59.5353 159.284 59.0673 159.1 58.6913 158.732C58.3153 158.356 58.1273 157.9 58.1273 157.364C58.1273 156.828 58.3153 156.376 58.6913 156.008C59.0673 155.632 59.5353 155.444 60.0953 155.444C60.6553 155.444 61.1193 155.628 61.4873 155.996C61.8633 156.364 62.0513 156.82 62.0513 157.364C62.0513 157.9 61.8633 158.356 61.4873 158.732ZM60.0833 158.228C60.3393 158.228 60.5473 158.144 60.7073 157.976C60.8673 157.808 60.9473 157.604 60.9473 157.364C60.9473 157.116 60.8673 156.908 60.7073 156.74C60.5473 156.572 60.3393 156.488 60.0833 156.488C59.8353 156.488 59.6313 156.572 59.4713 156.74C59.3113 156.908 59.2313 157.116 59.2313 157.364C59.2313 157.604 59.3113 157.808 59.4713 157.976C59.6313 158.144 59.8353 158.228 60.0833 158.228ZM58.8353 162.764L64.3673 156.608L65.0153 156.98L59.4833 163.148L58.8353 162.764ZM63.9353 164.144C63.3753 164.144 62.9073 163.96 62.5313 163.592C62.1553 163.216 61.9673 162.76 61.9673 162.224C61.9673 161.688 62.1553 161.236 62.5313 160.868C62.9073 160.492 63.3753 160.304 63.9353 160.304C64.4873 160.304 64.9513 160.492 65.3273 160.868C65.7033 161.236 65.8913 161.688 65.8913 162.224C65.8913 162.76 65.7033 163.216 65.3273 163.592C64.9513 163.96 64.4873 164.144 63.9353 164.144ZM63.9233 163.088C64.1793 163.088 64.3873 163.004 64.5473 162.836C64.7073 162.668 64.7873 162.464 64.7873 162.224C64.7873 161.976 64.7073 161.768 64.5473 161.6C64.3873 161.432 64.1793 161.348 63.9233 161.348C63.6753 161.348 63.4713 161.432 63.3113 161.6C63.1513 161.768 63.0713 161.976 63.0713 162.224C63.0713 162.464 63.1513 162.668 63.3113 162.836C63.4713 163.004 63.6753 163.088 63.9233 163.088Z" fill="#FDFDFF"/>
</svg>
